<?xml version="1.0" encoding="UTF-8" standalone="no"?>
<svg
   xmlns:dc="http://purl.org/dc/elements/1.1/"
   xmlns:cc="http://creativecommons.org/ns#"
   xmlns:rdf="http://www.w3.org/1999/02/22-rdf-syntax-ns#"
   xmlns:svg="http://www.w3.org/2000/svg"
   xmlns="http://www.w3.org/2000/svg"
   xmlns:sodipodi="http://sodipodi.sourceforge.net/DTD/sodipodi-0.dtd"
   xmlns:inkscape="http://www.inkscape.org/namespaces/inkscape"
   version="1.1"
   id="Capa_1"
   x="0px"
   y="0px"
   width="284.929px"
   height="284.929px"
   viewBox="0 0 284.929 284.929"
   style="enable-background:new 0 0 284.929 284.929;"
   xml:space="preserve"
   sodipodi:docname="down arrow.svg"
   inkscape:version="1.0.1 (3bc2e813f5, 2020-09-07)"><metadata
   id="metadata41"><rdf:RDF><cc:Work
       rdf:about=""><dc:format>image/svg+xml</dc:format><dc:type
         rdf:resource="http://purl.org/dc/dcmitype/StillImage" /></cc:Work></rdf:RDF></metadata><defs
   id="defs39" /><sodipodi:namedview
   pagecolor="#ffffff"
   bordercolor="#666666"
   borderopacity="1"
   objecttolerance="10"
   gridtolerance="10"
   guidetolerance="10"
   inkscape:pageopacity="0"
   inkscape:pageshadow="2"
   inkscape:window-width="1366"
   inkscape:window-height="705"
   id="namedview37"
   showgrid="false"
   inkscape:zoom="1.8881898"
   inkscape:cx="118.89511"
   inkscape:cy="142.46449"
   inkscape:window-x="-8"
   inkscape:window-y="-8"
   inkscape:window-maximized="1"
   inkscape:current-layer="Capa_1" />
<g
   id="g4"
   style="fill:#edcd1f;fill-opacity:1">
	<path
   d="M282.082,76.511l-14.274-14.273c-1.902-1.906-4.093-2.856-6.57-2.856c-2.471,0-4.661,0.95-6.563,2.856L142.466,174.441   L30.262,62.241c-1.903-1.906-4.093-2.856-6.567-2.856c-2.475,0-4.665,0.95-6.567,2.856L2.856,76.515C0.95,78.417,0,80.607,0,83.082   c0,2.473,0.953,4.663,2.856,6.565l133.043,133.046c1.902,1.903,4.093,2.854,6.567,2.854s4.661-0.951,6.562-2.854L282.082,89.647   c1.902-1.903,2.847-4.093,2.847-6.565C284.929,80.607,283.984,78.417,282.082,76.511z"
   id="path2"
   style="fill:#edcd1f;fill-opacity:1" />
</g>
<g
   id="g6">
</g>
<g
   id="g8">
</g>
<g
   id="g10">
</g>
<g
   id="g12">
</g>
<g
   id="g14">
</g>
<g
   id="g16">
</g>
<g
   id="g18">
</g>
<g
   id="g20">
</g>
<g
   id="g22">
</g>
<g
   id="g24">
</g>
<g
   id="g26">
</g>
<g
   id="g28">
</g>
<g
   id="g30">
</g>
<g
   id="g32">
</g>
<g
   id="g34">
</g>
</svg>
