<svg xmlns="http://www.w3.org/2000/svg" viewBox="0 0 104 40">
  <g fill="none" fill-rule="evenodd">
    <path fill="#000" d="M42.492034.07445887L.04626146 28.3428571H36.846017l5.0846995-3.9752381-1.3781325 3.9752381h6.2255213l-4.1170934 11.6219914 36.9012835-24.5766234H51.3675246l-.9773175 2.7563636h18.3246588L52.357202 29.0178355l2.2645162-6.388052h5.7032258l5.4081765-3.6079653H50.0819151l-2.0305603 5.7298701h-1.5326315l3.5245229-9.9464935-8.5829134 5.7163636 1.1835518-3.1352381h-4.7509814l-2.6098879 7.365368H12.869691l18.8116401-12.7205195-2.4774601 6.9906494-3.6156333-.005368-5.2861664 3.6133333h14.2001494"/>
    <path fill="#F6315C" d="M46.3538065 11.2283983h5.5365432l-7.3160203 5.0235498"/>
    <path fill="#000" d="M94.950764 17.4195671H78.3172971c-1.0456502 0-1.9389202.6405195-2.2940034 1.5435498l-.0545603.1548052-.2524957.7116883-1.9463362 5.4971428c-.4642037 1.3094373.9001562 2.9735065 2.2574533 2.9735065H83.35291c1.5015552-.0034632 2.2851749-1.1187878 2.6416706-2.4100432l1.6541121-4.6685715h.8978608l-2.507124 7.0786147h5.0578608l1.3097997-3.6993939h2.3098947l-1.3105059 3.6993939h5.0576842l5.498581-3.5485714h-4.2417525l2.5975285-7.3321212h-5.0578613l-1.845691 5.2102164h-2.3091884l1.8449847-5.2102164zm-14.7160883 3.9338528l-1.2035042 3.3982684h2.3084822l1.2511782-3.5307359-2.3091884.0006926-.0469678.1317749z"/>
  </g>
</svg>
